<?xml version="1.0" standalone="no"?>
<!DOCTYPE svg PUBLIC "-//W3C//DTD SVG 20010904//EN"
 "http://www.w3.org/TR/2001/REC-SVG-20010904/DTD/svg10.dtd">
<svg version="1.0" xmlns="http://www.w3.org/2000/svg"
 width="68.000000pt" height="68.000000pt" viewBox="0 0 68.000000 68.000000"
 preserveAspectRatio="xMidYMid meet">

<g transform="translate(0.000000,68.000000) scale(0.100000,-0.100000)"
fill="#000000" stroke="none">
<path d="M255 643 c-48 -25 -73 -53 -91 -99 -23 -61 -14 -111 40 -220 25 -51
46 -94 46 -97 0 -3 -11 -8 -25 -11 -42 -11 -65 -41 -65 -87 0 -22 4 -48 10
-58 36 -68 304 -68 340 0 6 10 10 36 10 58 0 46 -23 76 -65 87 -14 3 -25 9
-25 12 0 4 21 49 48 100 40 80 47 103 47 151 0 107 -77 181 -187 181 -29 -1
-66 -8 -83 -17z m163 -7 c61 -32 102 -97 102 -159 -1 -59 -92 -244 -156 -314
l-24 -28 -29 33 c-40 47 -128 208 -142 262 -22 82 9 155 86 201 36 23 124 25
163 5z m-124 -466 c14 -22 30 -40 35 -40 23 0 42 15 62 46 24 39 53 44 91 15
20 -16 25 -28 24 -67 -1 -39 -6 -50 -29 -68 -25 -18 -42 -21 -137 -21 -95 0
-112 3 -137 21 -23 18 -28 29 -29 68 -1 39 4 51 24 67 39 30 66 24 96 -21z"/>
<path d="M264 591 c-61 -37 -81 -134 -40 -196 49 -75 183 -75 232 0 41 62 21
159 -40 196 -40 25 -112 25 -152 0z m150 -12 c86 -68 63 -200 -41 -228 -72
-20 -150 32 -160 106 -6 46 13 91 53 122 36 29 112 29 148 0z"/>
<path d="M360 557 c-16 -9 -24 -21 -23 -34 3 -25 -21 -47 -50 -48 -14 0 -27
-11 -35 -28 -12 -25 -12 -31 4 -48 29 -32 101 -7 89 31 -7 21 19 44 48 45 31
0 51 43 33 70 -17 25 -34 28 -66 12z m55 -17 c10 -11 14 -20 8 -20 -5 0 -18 9
-28 20 -10 11 -14 20 -8 20 5 0 18 -9 28 -20z m-21 -19 c19 -20 24 -31 16 -36
-13 -8 -72 44 -64 57 9 14 19 9 48 -21z m-34 -29 c0 -14 -36 -43 -43 -35 -4 3
0 15 10 25 17 19 33 24 33 10z m-45 -52 l28 -29 -28 -11 c-22 -9 -31 -7 -46 6
-27 24 -14 31 13 8 22 -18 22 -18 -1 8 -12 15 -20 31 -16 37 10 17 19 13 50
-19z"/>
<path d="M183 122 c23 -37 209 -49 281 -18 22 9 37 19 34 21 -3 3 -21 -1 -41
-10 -75 -31 -172 -28 -261 10 -13 6 -17 5 -13 -3z"/>
</g>
</svg>
